<svg width="551" height="196" viewBox="0 0 551 196" fill="none" xmlns="http://www.w3.org/2000/svg">
<rect width="551" height="196" fill="#E5E5E5"/>
<rect x="3" width="548" height="196" rx="98" fill="#171717"/>
<ellipse cx="80" cy="98.5" rx="80" ry="73.5" fill="#C4C4C4" fill-opacity="0.44"/>
<rect x="3" y="63" width="338" height="71" rx="35.5" fill="#C4C4C4" fill-opacity="0.47"/>
<path d="M50.6582 108.587H64.9658V114H43.9199V81.2969H50.6582V108.587ZM76.0166 114H69.2783V81.2969H76.0166V114ZM108.158 109.867C106.945 111.32 105.231 112.45 103.015 113.259C100.799 114.052 98.3428 114.449 95.6475 114.449C92.8174 114.449 90.3317 113.835 88.1904 112.607C86.0641 111.365 84.417 109.568 83.249 107.217C82.096 104.866 81.5046 102.103 81.4746 98.9287V96.7051C81.4746 93.4408 82.0212 90.6182 83.1143 88.2373C84.2223 85.8415 85.8096 84.0146 87.876 82.7568C89.9574 81.484 92.3906 80.8477 95.1758 80.8477C99.054 80.8477 102.086 81.776 104.272 83.6328C106.459 85.4746 107.754 88.1624 108.158 91.6963H101.6C101.3 89.8245 100.634 88.4544 99.6006 87.5859C98.5824 86.7174 97.1748 86.2832 95.3779 86.2832C93.0869 86.2832 91.3424 87.1442 90.1445 88.8662C88.9466 90.5882 88.3402 93.1488 88.3252 96.5479V98.6367C88.3252 102.066 88.9766 104.656 90.2793 106.408C91.582 108.16 93.4912 109.036 96.0068 109.036C98.5374 109.036 100.342 108.497 101.42 107.419V101.781H95.2881V96.8174H108.158V109.867ZM140.255 114H133.517V99.9844H120.377V114H113.639V81.2969H120.377V94.5488H133.517V81.2969H140.255V114ZM170.105 86.7549H160.088V114H153.35V86.7549H143.467V81.2969H170.105V86.7549ZM181.134 114H174.396V81.2969H181.134V114ZM213.994 114H207.256L194.139 92.4824V114H187.4V81.2969H194.139L207.278 102.859V81.2969H213.994V114ZM245.754 109.867C244.541 111.32 242.826 112.45 240.61 113.259C238.394 114.052 235.938 114.449 233.243 114.449C230.413 114.449 227.927 113.835 225.786 112.607C223.66 111.365 222.013 109.568 220.845 107.217C219.692 104.866 219.1 102.103 219.07 98.9287V96.7051C219.07 93.4408 219.617 90.6182 220.71 88.2373C221.818 85.8415 223.405 84.0146 225.472 82.7568C227.553 81.484 229.986 80.8477 232.771 80.8477C236.65 80.8477 239.682 81.776 241.868 83.6328C244.054 85.4746 245.35 88.1624 245.754 91.6963H239.195C238.896 89.8245 238.229 88.4544 237.196 87.5859C236.178 86.7174 234.771 86.2832 232.974 86.2832C230.683 86.2832 228.938 87.1442 227.74 88.8662C226.542 90.5882 225.936 93.1488 225.921 96.5479V98.6367C225.921 102.066 226.572 104.656 227.875 106.408C229.178 108.16 231.087 109.036 233.603 109.036C236.133 109.036 237.938 108.497 239.016 107.419V101.781H232.884V96.8174H245.754V109.867ZM287.441 81.2969V102.837C287.441 106.416 286.318 109.246 284.072 111.327C281.841 113.409 278.786 114.449 274.908 114.449C271.09 114.449 268.058 113.438 265.812 111.417C263.565 109.396 262.42 106.618 262.375 103.084V81.2969H269.113V102.882C269.113 105.023 269.622 106.588 270.641 107.576C271.674 108.549 273.096 109.036 274.908 109.036C278.697 109.036 280.621 107.045 280.681 103.062V81.2969H287.441ZM299.705 102.478V114H292.967V81.2969H305.725C308.18 81.2969 310.337 81.7461 312.193 82.6445C314.065 83.543 315.503 84.8232 316.506 86.4854C317.509 88.1325 318.011 90.0117 318.011 92.123C318.011 95.3275 316.91 97.8581 314.709 99.7148C312.523 101.557 309.491 102.478 305.612 102.478H299.705ZM299.705 97.0195H305.725C307.507 97.0195 308.862 96.6003 309.79 95.7617C310.733 94.9232 311.205 93.7253 311.205 92.168C311.205 90.5658 310.733 89.2705 309.79 88.2822C308.847 87.2939 307.544 86.7848 305.882 86.7549H299.705V97.0195Z" fill="white"/>
<ellipse cx="507.584" cy="97.7701" rx="28.5877" ry="27" transform="rotate(-2 507.584 97.7701)" fill="white"/>
<ellipse cx="433.513" cy="99.9812" rx="28.5877" ry="27" transform="rotate(-2 433.513 99.9812)" fill="white"/>
</svg>
